<?xml version="1.0" standalone="no"?>
<!DOCTYPE svg PUBLIC "-//W3C//DTD SVG 20010904//EN"
 "http://www.w3.org/TR/2001/REC-SVG-20010904/DTD/svg10.dtd">
<svg version="1.0" xmlns="http://www.w3.org/2000/svg"
 width="416.000000pt" height="416.000000pt" viewBox="0 0 416.000000 416.000000"
 preserveAspectRatio="xMidYMid meet">
<metadata>
Created by potrace 1.14, written by Peter Selinger 2001-2017
</metadata>
<g transform="translate(0.000000,416.000000) scale(0.100000,-0.100000)"
fill="#000000" stroke="none">
<path d="M2096 3489 c-59 -10 -129 -51 -169 -101 -17 -21 -42 -73 -57 -115
-24 -74 -28 -78 -55 -78 -26 0 -30 4 -33 30 -2 17 7 50 21 78 13 26 21 47 16
47 -15 0 -60 -69 -89 -137 -40 -93 -40 -186 0 -132 13 17 31 22 83 26 74 6 97
-4 97 -42 0 -36 -24 -47 -118 -56 -95 -10 -130 -27 -145 -73 -5 -15 -6 -38 -2
-53 l6 -26 23 22 c32 30 144 41 169 17 21 -22 22 -50 1 -70 -10 -11 -34 -16
-75 -16 -80 0 -146 -18 -164 -43 -16 -23 -20 -92 -7 -101 5 -3 16 4 25 15 14
16 30 19 91 19 85 0 106 -13 90 -58 -9 -26 -13 -27 -102 -34 -108 -7 -145 -20
-161 -54 -25 -55 -6 -101 28 -70 25 22 153 23 175 0 19 -18 20 -28 6 -55 -8
-15 -22 -19 -63 -20 -162 -2 -207 -24 -207 -100 0 -42 17 -52 40 -24 9 11 32
15 81 15 56 0 73 -4 89 -20 24 -24 24 -29 4 -58 -14 -20 -23 -22 -118 -22
-119 0 -143 -11 -152 -70 -6 -46 8 -69 31 -50 20 17 162 15 183 -2 7 -6 12
-25 10 -42 l-3 -31 -130 -5 -130 -5 -27 -95 c-50 -179 -32 -269 77 -368 99
-91 335 -189 585 -242 58 -13 110 -28 117 -34 8 -8 -1 -43 -40 -138 -28 -71
-55 -128 -60 -128 -5 0 -7 10 -4 23 13 53 30 218 23 224 -13 14 -130 21 -142
9 -16 -15 -48 -323 -42 -401 4 -40 13 -76 27 -99 24 -38 95 -87 155 -106 83
-26 181 11 229 88 13 20 61 142 107 269 75 210 85 233 105 233 57 0 154 41
204 86 51 46 115 155 127 220 7 35 -8 48 -166 136 -98 56 -117 80 -90 114 20
23 48 17 143 -33 67 -36 93 -55 101 -75 6 -16 14 -28 17 -28 17 0 49 56 49 85
0 28 -8 39 -47 68 -27 19 -84 54 -127 78 -87 49 -107 69 -90 96 25 40 41 40
117 -1 99 -54 127 -74 137 -102 5 -13 14 -24 20 -24 14 0 39 41 46 77 5 27 1
34 -39 67 -24 20 -84 60 -133 90 -63 37 -90 60 -92 75 -4 28 14 51 42 51 37 0
189 -93 206 -126 8 -16 16 -31 18 -33 7 -13 43 40 48 70 6 33 2 39 -44 80 -27
24 -86 66 -130 92 -90 53 -106 77 -73 110 26 27 45 20 159 -52 65 -42 82 -58
82 -77 0 -49 43 -23 60 37 9 32 8 35 -53 94 -34 33 -94 78 -132 101 -54 32
-71 46 -73 66 -4 30 30 60 57 50 69 -26 201 -126 201 -153 0 -28 23 -23 43 10
24 40 21 64 -9 101 -31 37 -121 106 -186 144 -66 38 -76 89 -21 102 45 12 219
-105 225 -151 4 -34 18 -34 43 -1 15 21 21 46 23 106 12 250 -127 437 -448
604 -124 65 -180 72 -257 35 -53 -26 -74 -55 -104 -143 -28 -82 -53 -104 -88
-79 -20 13 -23 22 -18 59 8 71 59 168 109 205 l43 31 -70 -4 c-135 -9 -225
-89 -264 -234 -13 -49 -31 -67 -63 -62 -32 4 -35 49 -7 123 21 56 82 130 139
167 14 10 23 17 20 16 -3 0 -27 -4 -54 -9z m213 -404 c124 -24 294 -89 344
-133 24 -21 21 -49 -6 -67 -21 -14 -30 -12 -123 30 -130 58 -227 82 -378 93
-68 5 -129 13 -135 16 -15 10 -14 59 2 75 15 17 174 9 296 -14z m-109 -201
c111 -19 211 -50 320 -100 80 -37 97 -56 85 -93 -11 -34 -36 -33 -129 8 -132
58 -252 90 -388 103 -106 10 -122 14 -135 34 -11 17 -12 27 -3 43 9 18 20 21
84 21 40 0 115 -7 166 -16z m-61 -210 c158 -29 400 -121 414 -158 8 -21 -7
-51 -29 -60 -10 -4 -57 11 -112 34 -132 57 -248 89 -379 104 -62 7 -119 18
-127 26 -21 16 -20 39 1 63 15 16 26 18 83 12 36 -3 103 -13 149 -21z m-118
-198 c112 -18 221 -49 344 -98 137 -54 162 -81 115 -123 -19 -17 -24 -16 -147
33 -143 56 -258 86 -382 102 -91 11 -111 21 -111 54 0 49 36 56 181 32z m-45
-211 c91 -16 356 -100 425 -136 32 -16 39 -25 39 -49 0 -54 -28 -56 -143 -12
-169 66 -274 95 -403 113 -87 12 -104 21 -104 53 0 50 38 56 186 31z m-121
-200 c135 -18 482 -127 518 -164 13 -12 17 -26 12 -40 -13 -43 -36 -43 -147
-1 -139 52 -263 87 -378 107 -126 22 -156 47 -109 94 11 11 28 18 37 15 9 -2
40 -7 67 -11z m-356 -154 c12 -8 11 -26 -5 -120 -15 -94 -16 -118 -6 -157 16
-60 43 -97 98 -134 24 -17 44 -33 44 -35 0 -2 -18 4 -41 13 -55 21 -138 97
-160 147 -41 89 -5 296 50 295 3 0 12 -4 20 -9z m187 -36 c4 -8 -1 -51 -10
-95 -9 -44 -16 -99 -16 -123 1 -85 56 -160 160 -212 65 -33 75 -50 25 -42 -88
14 -217 103 -250 173 -30 64 -16 253 23 297 19 21 61 22 68 2z m243 -34 c13
-8 12 -24 -3 -119 -14 -88 -15 -118 -6 -152 17 -63 78 -122 174 -169 46 -22
89 -48 97 -57 26 -31 -100 -12 -184 29 -173 81 -215 176 -172 382 18 86 50
114 94 86z m305 -917 c24 -9 19 -24 -8 -24 -46 0 -80 -72 -60 -125 4 -10 21
-23 38 -30 l31 -13 -27 -11 c-39 -15 -75 1 -94 43 -41 86 38 191 120 160z"/>
<path d="M2221 634 c-67 -46 -189 -52 -263 -13 -11 6 -22 8 -25 6 -2 -3 10
-145 28 -316 l33 -311 168 0 c128 0 168 3 168 13 0 38 -62 615 -68 629 -6 14
-11 14 -41 -8z"/>
</g>
</svg>
